<svg xmlns="http://www.w3.org/2000/svg" width="56" height="57" viewBox="0 0 56 57" fill="none">
  <path d="M12.1616 17.4152C14.9409 17.4152 17.1939 15.1622 17.1939 12.3829C17.1939 9.60358 14.9409 7.35051 12.1616 7.35051C9.38228 7.35051 7.12921 9.60358 7.12921 12.3829C7.12921 15.1622 9.38228 17.4152 12.1616 17.4152Z" fill="#242A41"/>
  <path d="M21.9457 21.2286V49.1481H30.6144V35.3413C30.6144 31.6981 31.2998 28.17 35.8169 28.17C40.272 28.17 40.3272 32.3352 40.3272 35.5713V49.1504H49.0005V33.8394C49.0005 26.3185 47.3813 20.5386 38.5907 20.5386C34.3702 20.5386 31.5413 22.8547 30.3844 25.0466H30.2671V21.2286H21.9457ZM7.81921 21.2286H16.5017V49.1481H7.81921V21.2286Z" fill="#242A41"/>
</svg>